<svg id="bill" xmlns="http://www.w3.org/2000/svg" width="38.249" height="43.133" viewBox="0 0 38.249 43.133">
  <path id="Path_37" data-name="Path 37" d="M121.451,114.769a.536.536,0,0,1-.053-.1c-.2-.517-.566-.749-.98-.623-.452.137-.612.51-.515,1.088a.524.524,0,0,1-.142.409,2.066,2.066,0,0,0-.734,1.192,2.266,2.266,0,0,0,2.164,2.754,12.424,12.424,0,0,1,1.459.174,1.007,1.007,0,0,1,.787,1.058c.017.438-.189.689-.687.885a1.555,1.555,0,0,1-1.48-.159.583.583,0,0,0-.774.045.7.7,0,0,0-.2.873,1.252,1.252,0,0,0,.5.53,3.606,3.606,0,0,0,1.123.291c.293.027.478.055.582.377a.671.671,0,0,0,.772.451c.358-.049.719-.286.649-.648-.112-.577.214-.84.545-1.173a1.826,1.826,0,0,0,.385-.687,2.66,2.66,0,0,0-2.232-3.452c-.516-.049-1.034-.089-1.544-.17a.647.647,0,0,1-.549-.61.661.661,0,0,1,.378-.727,2.212,2.212,0,0,1,1.466-.235c.5.078.793-.1.884-.527a.7.7,0,0,0-.6-.925A10.056,10.056,0,0,0,121.451,114.769Zm-4.6,18.346.093-.07c.161-.047.323-.093.483-.142q7.616-2.3,15.23-4.611c.857-.259,1.714-.518,2.567-.794a.6.6,0,0,0,.456-.736.633.633,0,0,0-.794-.439c-.1.02-.189.053-.282.082l-15.862,4.811c-.643.195-1.286.384-1.927.588-.35.111-.58.367-.459.729C116.427,132.757,116.677,132.923,116.848,133.115Zm2.221,6.909c.134-.038.269-.073.4-.114l14.453-4.376c1.137-.345,2.273-.7,3.409-1.044.3-.093.516-.3.459-.611a.859.859,0,0,0-.385-.535.905.905,0,0,0-.6.036q-7.607,2.3-15.209,4.606c-.9.271-1.8.533-2.689.811a.586.586,0,0,0-.459.7A.615.615,0,0,0,119.069,140.024Zm-1-3.513c.061-.017.183-.046.3-.083q5.1-1.543,10.207-3.088,3.777-1.145,7.554-2.293c.355-.107.621-.269.6-.688-.024-.477-.414-.661-1.014-.479l-15.26,4.631c-.884.268-1.767.537-2.647.814a.558.558,0,0,0-.424.677A.587.587,0,0,0,118.072,136.511Zm-2.122-6.989c.071-.019.206-.051.339-.091l16.594-5.026c.429-.13.862-.247,1.286-.392.288-.1.521-.313.436-.627a.68.68,0,0,0-1.031-.474q-7.491,2.263-14.979,4.539-1.425.432-2.849.869a.589.589,0,0,0-.482.686A.6.6,0,0,0,115.95,129.522Z" transform="translate(-105.546 -104.408)" fill="#fff"/>
  <path id="Path_38" data-name="Path 38" d="M27.133,0a.436.436,0,0,0,.11.06A2.792,2.792,0,0,1,29.4,2.136q4.233,13.958,8.465,27.915a7.494,7.494,0,0,1,.377,1.547,2.706,2.706,0,0,1-2.013,2.853q-2.627.823-5.27,1.595c-.339.1-.478.237-.45.6a13.642,13.642,0,0,1,0,1.389.6.6,0,0,1-.617.649.621.621,0,0,1-.644-.633c-.019-.475,0-.952,0-1.476l-17.218,5.2c.007.032.013.063.019.1H27.54a1.527,1.527,0,0,0,1.714-1.322.65.65,0,0,1,.775-.537.642.642,0,0,1,.45.825,2.758,2.758,0,0,1-1.825,2.136c-.142.053-.282.108-.423.162H2.283c-.167-.063-.335-.125-.5-.189A2.784,2.784,0,0,1,.007,40.281Q0,34,0,27.727C0,21.958,0,16.187.02,10.417A4.551,4.551,0,0,1,.351,8.751,2.439,2.439,0,0,1,2.129,7.333a.492.492,0,0,0,.442-.569A3.958,3.958,0,0,1,4.858,3.028a3.862,3.862,0,0,1,4.214.353A12.207,12.207,0,0,1,10.46,4.787c.049-.013.221-.058.39-.11L21.793,1.356c.623-.189.98-.086,1.1.313s-.115.7-.72.879q-6.648,2.015-13.3,4.023a.545.545,0,0,0-.461.64c.02,2.232.016,4.464.008,6.7a2.925,2.925,0,0,1-2.213,2.959A2.9,2.9,0,0,1,3.2,15.842a.655.655,0,0,0-.3-.24c.193.65.382,1.3.58,1.948q1.189,3.919,2.379,7.835a1.27,1.27,0,0,1,.088.489.607.607,0,0,1-.591.559.616.616,0,0,1-.634-.507c-.447-1.483-.9-2.965-1.348-4.449q-.965-3.2-1.926-6.394c-.028-.092-.065-.182-.14-.39-.025.208-.047.3-.047.4q0,12.593,0,25.187a1.487,1.487,0,0,0,1.575,1.59q3.917.006,7.834,0c.153,0,.307-.019.5-.033-.242-.1-.451-.2-.66-.283A3.06,3.06,0,0,1,8.8,39.391Q7.166,33.977,5.521,28.568c-.1-.343-.111-.678.266-.874a.577.577,0,0,1,.756.156,1.292,1.292,0,0,1,.2.457q1.644,5.4,3.281,10.809c.387,1.275,1.043,1.646,2.315,1.262q10.853-3.279,21.7-6.571c.563-.17,1.127-.336,1.687-.513a1.563,1.563,0,0,0,1.147-2.18Q34.262,22.5,31.646,13.88,29.939,8.257,28.23,2.633a1.589,1.589,0,0,0-2.307-1.214c-.307.094-.616.187-.927.272a.642.642,0,0,1-.869-.42c-.1-.329.1-.635.522-.774C25.167.327,25.686.165,26.2,0ZM9.056,5.21a2.809,2.809,0,0,0-5.2,1.443c-.04,2.455-.041,4.911-.036,7.366a1.677,1.677,0,1,0,3.35-.042q0-2.611,0-5.221c0-.674,0-1.347,0-2.021a.478.478,0,0,0-.493-.516.46.46,0,0,0-.524.433,3.561,3.561,0,0,0-.033.545c0,1.909,0,3.818-.006,5.726,0,.471-.259.736-.641.717-.353-.018-.58-.295-.58-.734,0-2.091-.009-4.183,0-6.273a1.6,1.6,0,0,1,.931-1.489,1.6,1.6,0,0,1,1.79.09.869.869,0,0,0,.984.135C8.728,5.31,8.876,5.27,9.056,5.21ZM2.565,8.561a2.555,2.555,0,0,0-.357.081,1.445,1.445,0,0,0-.88,1.743c.336,1.2.708,2.383,1.068,3.574a2.1,2.1,0,0,0,.169.294Z" transform="translate(-0.001)" fill="#194e78"/>
  <path id="Path_39" data-name="Path 39" d="M161.968,114.769a10.358,10.358,0,0,1,1.2.09.7.7,0,0,1,.6.925c-.091.433-.383.607-.884.527a2.212,2.212,0,0,0-1.466.235.661.661,0,0,0-.378.727.649.649,0,0,0,.549.61c.51.081,1.029.121,1.544.17a2.66,2.66,0,0,1,2.232,3.452,1.82,1.82,0,0,1-.385.687c-.331.333-.657.6-.545,1.173.07.361-.29.6-.649.648a.671.671,0,0,1-.772-.451c-.105-.322-.289-.35-.582-.377a3.629,3.629,0,0,1-1.123-.291,1.252,1.252,0,0,1-.5-.53.7.7,0,0,1,.2-.873.582.582,0,0,1,.774-.045,1.555,1.555,0,0,0,1.48.159c.5-.2.7-.447.687-.885a1.007,1.007,0,0,0-.787-1.058,12.4,12.4,0,0,0-1.459-.174,2.265,2.265,0,0,1-2.164-2.754,2.062,2.062,0,0,1,.734-1.192.521.521,0,0,0,.142-.409c-.1-.577.063-.95.515-1.088.414-.126.778.106.98.623A.709.709,0,0,0,161.968,114.769Z" transform="translate(-146.063 -104.408)" fill="#194e78"/>
  <path id="Path_40" data-name="Path 40" d="M128.42,266.722c-.171-.192-.42-.358-.5-.583-.121-.361.109-.618.459-.729.639-.2,1.284-.393,1.927-.588l15.862-4.811c.094-.029.186-.061.282-.082a.633.633,0,0,1,.794.439.6.6,0,0,1-.456.736c-.852.276-1.709.534-2.567.794q-7.615,2.307-15.23,4.611c-.161.049-.322.094-.483.142Z" transform="translate(-117.118 -238.015)" fill="#aebfce"/>
  <path id="Path_41" data-name="Path 41" d="M153.661,349.735a.615.615,0,0,1-.621-.524.586.586,0,0,1,.459-.7c.894-.278,1.793-.54,2.689-.811q7.6-2.3,15.209-4.606a.91.91,0,0,1,.6-.036.857.857,0,0,1,.385.535c.057.307-.157.518-.459.611-1.136.349-2.272.7-3.409,1.044q-7.227,2.19-14.453,4.376C153.93,349.662,153.795,349.7,153.661,349.735Z" transform="translate(-140.137 -314.12)" fill="#aebfce"/>
  <path id="Path_42" data-name="Path 42" d="M141.166,308.251a.586.586,0,0,1-.681-.509.558.558,0,0,1,.424-.677c.88-.277,1.764-.546,2.647-.814l15.26-4.631c.6-.182.991,0,1.014.479.02.419-.245.58-.6.688-2.519.76-5.035,1.53-7.554,2.293q-5.1,1.547-10.207,3.088C141.349,308.2,141.227,308.235,141.166,308.251Z" transform="translate(-128.64 -276.148)" fill="#aebfce"/>
  <path id="Path_43" data-name="Path 43" d="M115.941,225.276a.6.6,0,0,1-.687-.516.589.589,0,0,1,.482-.686q1.424-.436,2.849-.869,7.488-2.272,14.979-4.539a.944.944,0,0,1,.6-.059.934.934,0,0,1,.432.533c.083.314-.148.528-.436.627-.424.145-.857.262-1.286.392l-16.594,5.026C116.148,225.226,116.012,225.257,115.941,225.276Z" transform="translate(-105.537 -200.162)" fill="#aebfce"/>
  <path id="Path_44" data-name="Path 44" d="M50.495,47.226c-.179.061-.328.1-.468.16a.869.869,0,0,1-.984-.135,1.751,1.751,0,0,0-2.721,1.4c-.005,2.091,0,4.183,0,6.273,0,.439.227.717.58.734.382.019.639-.246.641-.717.008-1.909,0-3.818.006-5.726a3.567,3.567,0,0,1,.033-.545.46.46,0,0,1,.524-.433.478.478,0,0,1,.493.516c0,.674,0,1.347,0,2.021q0,2.611,0,5.221a1.677,1.677,0,1,1-3.35.042c-.006-2.456,0-4.911.036-7.366a2.809,2.809,0,0,1,5.2-1.445Z" transform="translate(-41.44 -42.017)" fill="#aebfce"/>
  <path id="Path_45" data-name="Path 45" d="M16.389,101.63v5.691a1.928,1.928,0,0,1-.169-.294c-.36-1.19-.732-2.376-1.068-3.574a1.444,1.444,0,0,1,.88-1.743A2.68,2.68,0,0,1,16.389,101.63Z" transform="translate(-13.824 -93.069)" fill="#aebfce"/>
</svg>
