<svg id="hazard-sign" xmlns="http://www.w3.org/2000/svg" width="34.274" height="43.133" viewBox="0 0 34.274 43.133">
  <path id="Path_46" data-name="Path 46" d="M27.1,0a2.509,2.509,0,0,1,1.8,2.358c.663,5.073,1.382,10.139,2.082,15.207q.991,7.165,1.986,14.329.643,4.644,1.278,9.29a1.516,1.516,0,0,1-1.085,1.95H29.622a1.787,1.787,0,0,1-1.156-1.641c-.12-1.125-.3-2.244-.456-3.365H6.295c-.147,1.072-.32,2.11-.425,3.156a1.907,1.907,0,0,1-1.184,1.85H1.146A1.5,1.5,0,0,1,.012,41.727a.712.712,0,0,1,1.072-.7c.118.064.157.262.254.38s.2.274.312.277q1.242.034,2.484,0a.472.472,0,0,0,.345-.27,5.518,5.518,0,0,0,.1-.815c.044-.329.1-.655.149-.982a3.839,3.839,0,0,0,.1-.774,2.794,2.794,0,0,1,.253-1.281,1.49,1.49,0,0,1,1.493-.9c5.349-.019,10.7-.011,16.05-.011h5.055a1.789,1.789,0,0,1,1.747,1.327c.091.477.058.976.126,1.458s.191.987.29,1.48a.689.689,0,0,1,.022.122c.012.66.012.66.671.66h2.381c-.077-.611-.149-1.22-.232-1.828-.1-.709-.2-1.417-.3-2.125q-.2-1.41-.4-2.821c-.1-.682-.184-1.366-.28-2.048-.133-.954-.275-1.906-.4-2.861-.121-.9-.221-1.8-.346-2.705-.129-.928-.283-1.851-.413-2.778-.1-.7-.164-1.4-.261-2.091-.128-.928-.277-1.852-.407-2.779-.1-.7-.172-1.394-.268-2.089-.128-.928-.27-1.853-.4-2.78-.1-.682-.185-1.365-.281-2.047-.133-.954-.273-1.907-.4-2.862-.094-.7-.168-1.394-.264-2.09-.128-.928-.274-1.853-.4-2.78-.1-.7-.183-1.393-.27-2.089-.038-.3-.051-.607-.1-.906a.781.781,0,0,0-.789-.655Q18.4,1.4,10.1,1.43c-.881,0-1.764-.074-2.641-.027-.218.012-.467.333-.61.568a1.924,1.924,0,0,0-.136.7c-.083.578-.171,1.156-.239,1.736-.06.5-.078,1.013-.147,1.516-.066.486-.175.966-.259,1.451-.045.265-.077.533-.114.8-.082.579-.174,1.157-.243,1.736-.087.716-.138,1.437-.236,2.152s-.248,1.413-.348,2.122c-.071.5-.08,1.012-.147,1.514-.066.486-.175.965-.258,1.449-.045.265-.078.532-.115.8-.082.578-.173,1.155-.243,1.735-.087.716-.139,1.437-.238,2.152s-.247,1.412-.347,2.122c-.071.5-.08,1.012-.148,1.514-.066.486-.174.965-.257,1.449-.045.265-.078.532-.115.8-.082.578-.173,1.156-.243,1.735-.087.716-.14,1.437-.238,2.152s-.246,1.413-.346,2.122c-.071.5-.083,1.012-.149,1.514a5.621,5.621,0,0,1-.221,1.022c-.094.287-.918.315-1.067.029a1.274,1.274,0,0,1-.161-.7Q2.107,26.292,3.4,17,4.434,9.535,5.449,2.072A2.356,2.356,0,0,1,7.212,0Z" transform="translate(-0.011)" fill="#194e78"/>
  <path id="Path_47" data-name="Path 47" d="M89.736,121.7c-2.835,0-5.67.029-8.5-.026a1.653,1.653,0,0,1-1.361-.789,5.393,5.393,0,0,1-.477-1.04.791.791,0,0,1,.051-.559c.664-1.279,1.334-2.554,2.032-3.815.624-1.128,1.279-2.239,1.93-3.352.671-1.146,1.362-2.28,2.029-3.428.484-.835.936-1.689,1.415-2.527a22.585,22.585,0,0,1,1.4-2.326,2.373,2.373,0,0,1,1.139-.645,2.193,2.193,0,0,1,1.923.5c.274.181.386.609.568.928.655,1.147,1.3,2.3,1.965,3.443.788,1.353,1.6,2.691,2.387,4.045.677,1.169,1.331,2.352,2,3.528.589,1.043,1.193,2.077,1.762,3.131a2.087,2.087,0,0,1-.332,2.286,2.39,2.39,0,0,1-1.371.595c-2.849.054-5.7.027-8.55.027A.089.089,0,0,1,89.736,121.7Zm.1-1.349v.01q4.107,0,8.213,0a.783.783,0,0,0,.735-1.21c-.643-1.147-1.309-2.281-1.97-3.419-.98-1.689-1.968-3.372-2.942-5.064-1.112-1.932-2.2-3.876-3.336-5.8a1.1,1.1,0,0,0-.718-.4c-.462-.076-.652.284-.857.645-.778,1.37-1.594,2.718-2.383,4.081-.479.826-.924,1.669-1.4,2.494-.789,1.363-1.6,2.715-2.391,4.077-.577.991-1.144,1.987-1.715,2.981-.069.12-.145.237-.206.361-.346.694-.024,1.232.757,1.233C84.36,120.357,87.1,120.353,89.837,120.353Z" transform="translate(-72.679 -94.43)" fill="#194e78"/>
  <path id="Path_48" data-name="Path 48" d="M112.678,38.108c-2.33,0-4.66-.019-6.991.017a2.757,2.757,0,0,1-1.061-.311c-.072-.027-.105-.153-.159-.232a1.963,1.963,0,0,1-.111-1.725c.087-.34.226-.667.34-1a1.438,1.438,0,0,1,1.478-.958c3.453-.029,6.906-.014,10.359-.014.687,0,1.377.032,2.063-.01a2.531,2.531,0,0,1,1.38.343,1.55,1.55,0,0,1,.628,1.074c.123.419.277.831.358,1.258a1.934,1.934,0,0,1-.123.608,1.1,1.1,0,0,1-.917.924,2.024,2.024,0,0,1-.464.026Zm6.526-2.764H105.946c-.115.468-.227.921-.343,1.385h13.947C119.43,36.247,119.318,35.8,119.2,35.344Z" transform="translate(-95.434 -31.017)" fill="#194e78"/>
  <path id="Path_49" data-name="Path 49" d="M111.785,351.085a1.283,1.283,0,0,1-1.261.754c-5.474-.023-10.949-.012-16.423-.019a.833.833,0,0,1-.521-.15c-.2-.179-.51-.527-.453-.632A.939.939,0,0,1,94,350.43q8.422.029,16.844,0C111.358,350.431,111.517,350.8,111.785,351.085Z" transform="translate(-85.276 -320.908)" fill="#194e78"/>
  <path id="Path_50" data-name="Path 50" d="M144.26,394.345c.1-.73.634-.633,1.122-.633q3.9,0,7.791,0c.491,0,.981-.047,1.065.677-.2.607-.75.669-1.351.667q-3.622-.009-7.243,0C145.051,395.054,144.472,395.038,144.26,394.345Z" transform="translate(-132.108 -360.541)" fill="#194e78"/>
  <path id="Path_51" data-name="Path 51" d="M5.308,453.991c-.286-.008-.725-.389-.728-.632,0-.264.462-.585.827-.573a.677.677,0,0,1,.542.621A.583.583,0,0,1,5.308,453.991Z" transform="translate(-4.195 -414.642)" fill="#194e78"/>
  <path id="Path_52" data-name="Path 52" d="M104.648,135.042q-4.107,0-8.215,0c-.781,0-1.1-.539-.757-1.233.061-.124.137-.24.206-.361.571-.994,1.138-1.991,1.715-2.981.794-1.361,1.6-2.714,2.391-4.077.479-.826.924-1.669,1.4-2.494.789-1.363,1.607-2.711,2.383-4.081.206-.362.4-.722.857-.645a1.106,1.106,0,0,1,.718.4c1.134,1.919,2.223,3.863,3.336,5.8.975,1.692,1.962,3.376,2.942,5.064.66,1.137,1.327,2.271,1.97,3.419a.783.783,0,0,1-.735,1.21q-4.107.006-8.213,0A.032.032,0,0,0,104.648,135.042Zm-.7-8.737c0,.855-.007,1.711.005,2.566a.836.836,0,0,0,.7.972.468.468,0,0,0,.56-.384,2.652,2.652,0,0,0,.1-.61c.011-.912.005-1.823.005-2.735,0-.813.008-1.627,0-2.44a.794.794,0,0,0-.7-.847c-.359.011-.639.355-.669.826-.005.083,0,.168,0,.253Q103.946,125.105,103.947,126.3Zm1.406,6.234c-.043-.194-.087-.353-.113-.515a.544.544,0,0,0-.6-.511.551.551,0,0,0-.606.505,2.737,2.737,0,0,0,.024,1.006.767.767,0,0,0,.532.441.807.807,0,0,0,.576-.324A1.662,1.662,0,0,0,105.354,132.539Z" transform="translate(-87.491 -109.118)" fill="#adb5bc"/>
  <path id="Path_53" data-name="Path 53" d="M195.335,166.214v-2.4c0-.084,0-.168,0-.253.03-.472.309-.815.669-.826a.8.8,0,0,1,.7.847c.012.813,0,1.627,0,2.44,0,.912.006,1.823-.005,2.735a2.66,2.66,0,0,1-.1.61.469.469,0,0,1-.56.384.836.836,0,0,1-.7-.972C195.328,167.925,195.335,167.069,195.335,166.214Z" transform="translate(-178.879 -149.028)" fill="#194e78"/>
  <path id="Path_54" data-name="Path 54" d="M197.358,266.873a1.682,1.682,0,0,1-.185.6.807.807,0,0,1-.576.324.767.767,0,0,1-.532-.441,2.755,2.755,0,0,1-.024-1.006.55.55,0,0,1,.606-.505.544.544,0,0,1,.6.51C197.272,266.52,197.315,266.679,197.358,266.873Z" transform="translate(-179.495 -243.453)" fill="#194e78"/>
</svg>
