<svg xmlns="http://www.w3.org/2000/svg" width="24.54" height="29.98" viewBox="0 0 24.54 29.98">
  <g id="notification-bell" transform="translate(-3.013 0.001)">
    <path id="Path_20" data-name="Path 20" d="M14.89,29.979a3.583,3.583,0,0,1-1.548-.7,3.057,3.057,0,0,1-1.15-2.394c0-.088,0-.175-.009-.262,0-.018-.015-.034-.04-.084H3.827c-.653,0-.867-.224-.8-.875a3.76,3.76,0,0,1,1.625-2.818.486.486,0,0,0,.237-.45q-.011-4.464-.005-8.927A10.236,10.236,0,0,1,8.805,5.146a9.444,9.444,0,0,1,3.538-1.814c.246-.067.341-.166.327-.435A2.59,2.59,0,0,1,13.713.541a2.5,2.5,0,0,1,2.6-.314,2.474,2.474,0,0,1,1.567,2.124c.014.126.029.252.033.378.016.56.02.545.531.727A10.335,10.335,0,0,1,25.5,13.423c0,2.946,0,5.892-.007,8.839a.48.48,0,0,0,.257.465,3.746,3.746,0,0,1,1.806,3.132q.03.674-.716.673-4.024,0-8.048,0h-.374c-.02.245-.031.474-.057.7a3.127,3.127,0,0,1-2.489,2.687,1.212,1.212,0,0,0-.159.056ZM6.051,22.431h.388q4.916,0,9.832,0a1.743,1.743,0,0,1,.433.043.539.539,0,0,1,.414.565.56.56,0,0,1-.451.54,1.912,1.912,0,0,1-.378.021H5.9a.7.7,0,0,0-.315.029A2.6,2.6,0,0,0,4.26,25.339H26.318a2.615,2.615,0,0,0-1.452-1.768.852.852,0,0,1-.548-.89c.01-3.1,0-6.2.007-9.306a8.938,8.938,0,0,0-1.149-4.567,8.939,8.939,0,0,0-6.625-4.6,8.663,8.663,0,0,0-6.529,1.5,8.978,8.978,0,0,0-3.97,7.706c-.01,2.887,0,5.774,0,8.662C6.051,22.181,6.051,22.288,6.051,22.431Zm7.336,4.113a1.943,1.943,0,0,0,.926,1.99,1.914,1.914,0,0,0,2.856-1.991ZM16.715,2.905a1.457,1.457,0,0,0-.694-1.524,1.4,1.4,0,0,0-1.6.082,1.439,1.439,0,0,0-.574,1.442Z" fill="#fff"/>
    <path id="Path_21" data-name="Path 21" d="M211.051,307.22a.583.583,0,0,1-.581-.573.592.592,0,0,1,.57-.588.6.6,0,0,1,.586.577A.591.591,0,0,1,211.051,307.22Z" transform="translate(-192.247 -283.622)" fill="#fff"/>
  </g>
</svg>
