<svg xmlns="http://www.w3.org/2000/svg" width="31.258" height="31.27" viewBox="0 0 31.258 31.27">
  <path id="Path_11674" data-name="Path 11674" d="M28.812,31.273H13.244a1.692,1.692,0,0,0-.17-.054,2.53,2.53,0,0,1-2.012-1.677,12.717,12.717,0,0,1-.379-2.09c-.088-.57-.147-1.145-.221-1.736H10.1c-2.391,0-4.782.014-7.172-.012a3.4,3.4,0,0,1-1.356-.276A2.67,2.67,0,0,1,0,22.8V2.926c0-.041,0-.081,0-.122A2.715,2.715,0,0,1,2.479.042,16.035,16.035,0,0,1,4.216.01q3.922,0,7.844,0A2.724,2.724,0,0,1,14.874,2.3c.123.658.177,1.33.263,2,.054.419.108.839.164,1.268h.4q6.317,0,12.635,0A2.665,2.665,0,0,1,30.7,6.706a7.1,7.1,0,0,1,.55,1.3V28.831a.983.983,0,0,0-.048.143,2.724,2.724,0,0,1-.967,1.672A3.259,3.259,0,0,1,28.812,31.273ZM15.524,7.4c.1.767.189,1.492.279,2.219q.44,3.556.88,7.113c.32,2.573.631,5.146.97,7.716a1.388,1.388,0,0,1-.385,1.188c-1.048,1.191-2.08,2.4-3.116,3.6-.047.055-.085.119-.148.209H28.271c.835,0,1.152-.322,1.152-1.168V8.555c0-.838-.321-1.158-1.163-1.158H15.524Zm.208,16.487c-.138-1.1-.274-2.168-.407-3.236q-.5-4.042-1-8.083-.6-4.858-1.21-9.716a.991.991,0,0,0-1.124-1.008H2.957c-.8,0-1.13.332-1.13,1.129V22.753c0,.8.331,1.131,1.129,1.131H15.732ZM12.617,28.2l2.135-2.473H12.315C12.413,26.54,12.51,27.33,12.617,28.2Z" transform="translate(0.004 -0.003)" fill="#fff"/>
</svg>
