<svg xmlns="http://www.w3.org/2000/svg" width="14.875" height="14.85" viewBox="0 0 14.875 14.85">
  <path id="Path_120" data-name="Path 120" d="M85.248,92.685a7.425,7.425,0,1,1,7.365-8.457A7.264,7.264,0,0,1,91.1,89.841a.47.47,0,0,1-.518.215c-.315-.079-.385-.416-.2-.73a11.684,11.684,0,0,0,.992-1.777,6.513,6.513,0,1,0-2.444,3.13c.1-.065.218-.169.308-.152a.748.748,0,0,1,.448.224.367.367,0,0,1-.128.546,14.078,14.078,0,0,1-1.476.816A6.919,6.919,0,0,1,85.248,92.685Z" transform="translate(-77.817 -77.835)" fill="#fff"/>
</svg>
