<svg xmlns="http://www.w3.org/2000/svg" width="26.955" height="30.642" viewBox="0 0 26.955 30.642">
  <g id="question" transform="translate(-0.003 0.002)">
    <path id="Path_22" data-name="Path 22" d="M13.164,96.254A1.973,1.973,0,0,1,12.1,95.231c-.42-.769-.888-1.513-1.3-2.285a1.971,1.971,0,0,0-1.242-.99,13.236,13.236,0,0,1-7.243-5.339,13.433,13.433,0,0,1-.038-15c.125-.187.267-.33.508-.293.345.054.464.4.272.742C2.7,72.694,2.3,73.309,2,73.968A12.555,12.555,0,0,0,9.816,91.1a2.772,2.772,0,0,1,1.749,1.382c.468.857.97,1.695,1.46,2.539.264.454.612.453.876,0,.511-.879,1.023-1.756,1.523-2.641a2.5,2.5,0,0,1,1.518-1.221c.381-.114.753-.258,1.13-.388.316-.109.555-.028.656.219s-.016.5-.341.622c-.373.14-.748.277-1.13.386a1.7,1.7,0,0,0-1.067.847c-.447.8-.926,1.582-1.366,2.386a1.972,1.972,0,0,1-1.063,1.023Z" transform="translate(0 -65.615)" fill="#fff"/>
    <path id="Path_23" data-name="Path 23" d="M65.962,13.5a13.5,13.5,0,0,1-6.636,11.551.7.7,0,0,1-.468.126.577.577,0,0,1-.335-.324c-.081-.205.039-.376.226-.5.5-.331,1.016-.636,1.478-1.012a12.263,12.263,0,0,0,4.784-10.49A12.455,12.455,0,0,0,54.726,1.11,12.274,12.274,0,0,0,43.471,4.718c-.085.084-.165.173-.25.257a.469.469,0,0,1-.686.074.453.453,0,0,1,.04-.686A23.79,23.79,0,0,1,44.559,2.6,13.144,13.144,0,0,1,53.084.01a13.474,13.474,0,0,1,12.544,10.6,9.624,9.624,0,0,1,.177,1.03C65.871,12.263,65.911,12.89,65.962,13.5Z" transform="translate(-39.004)" fill="#fff"/>
    <path id="Path_24" data-name="Path 24" d="M113.179,75.845c0-.4,0-.8,0-1.2a1.609,1.609,0,0,1,1.605-1.657,1.436,1.436,0,1,0-1.433-1.425,1.611,1.611,0,1,1-3.218-.123,4.653,4.653,0,0,1,9.117-1.2c.106.363.014.606-.258.692s-.487-.075-.6-.426a3.676,3.676,0,0,0-3.215-2.689,3.759,3.759,0,0,0-4.1,3.184c-.017.138-.037.277-.042.417a.718.718,0,1,0,1.422.057,2.335,2.335,0,1,1,2.5,2.4c-.675.05-.875.264-.875.936,0,.758,0,1.516,0,2.273a.719.719,0,0,0,.516.724.669.669,0,0,0,.761-.273,1.137,1.137,0,0,0,.14-.506c.019-.458.011-.917,0-1.376a.481.481,0,0,1,.365-.513,3.753,3.753,0,0,0,2.606-2.863c.075-.317.3-.476.55-.415a.458.458,0,0,1,.319.611,4.584,4.584,0,0,1-2.7,3.327.357.357,0,0,0-.249.4c.014.309.01.618,0,.927a1.609,1.609,0,0,1-3.218,0C113.172,76.7,113.179,76.275,113.179,75.845Z" transform="translate(-101.327 -61.564)" fill="#fff"/>
    <path id="Path_25" data-name="Path 25" d="M148.639,227.245a5.328,5.328,0,0,1-.68-.066,1.261,1.261,0,0,1-1.007-1.121,4.709,4.709,0,0,1-.007-.895,1.254,1.254,0,0,1,1.114-1.183,4.818,4.818,0,0,1,1.218.012,1.236,1.236,0,0,1,1.05,1.11,4.922,4.922,0,0,1,.022.776,1.334,1.334,0,0,1-1.409,1.347h-.3A.076.076,0,0,1,148.639,227.245Zm.019-2.4c-.119,0-.239,0-.358,0a.449.449,0,0,0-.472.44c-.072.625.021.928.318,1.02a.5.5,0,0,0,.147.02c.229,0,.458.008.687,0,.307-.012.454-.171.475-.5.042-.669-.05-.908-.379-.975a.836.836,0,0,0-.149-.01C148.838,224.845,148.748,224.846,148.658,224.847Z" transform="translate(-135.177 -206.046)" fill="#fff"/>
  </g>
</svg>
