<svg xmlns="http://www.w3.org/2000/svg" xmlns:xlink="http://www.w3.org/1999/xlink" width="190" height="92" viewBox="0 0 190 92">
  <defs>
    <filter id="Rectangle_26" x="0" y="0" width="190" height="92" filterUnits="userSpaceOnUse">
      <feOffset dy="3" input="SourceAlpha"/>
      <feGaussianBlur stdDeviation="3" result="blur"/>
      <feFlood flood-opacity="0.161"/>
      <feComposite operator="in" in2="blur"/>
      <feComposite in="SourceGraphic"/>
    </filter>
  </defs>
  <g id="Attach_Receipt_Box" data-name="Attach Receipt Box" transform="translate(-112 -335)">
    <g transform="matrix(1, 0, 0, 1, 112, 335)" filter="url(#Rectangle_26)">
      <g id="Rectangle_26-2" data-name="Rectangle 26" transform="translate(9 6)" fill="#fff" stroke="#f5f5f5" stroke-width="1">
        <rect width="172" height="74" rx="14" stroke="none"/>
        <rect x="0.5" y="0.5" width="171" height="73" rx="13.5" fill="none"/>
      </g>
    </g>
    <g id="Group_3" data-name="Group 3" transform="translate(-7)">
      <g id="checked" transform="translate(197.003 348)">
        <path id="Path_81" data-name="Path 81" d="M0,19.009V3.451A3.185,3.185,0,0,1,3.453.007Q12.659.007,21.862,0a1.262,1.262,0,0,1,.976.405Q26.424,4.013,30.031,7.6a1.177,1.177,0,0,1,.375.909c-.01,4.077,0,8.155-.014,12.232a.545.545,0,0,0,.345.57,8.858,8.858,0,0,1-2.824,16.6,10.187,10.187,0,0,1-1.459.1q-11.539.008-23.079,0A3.176,3.176,0,0,1,0,34.645Q0,26.827,0,19.009ZM29.117,8.874H28.66c-1.333,0-2.665.012-4,0A3.108,3.108,0,0,1,21.6,6.282a9.407,9.407,0,0,1-.068-1.5c-.008-1.157,0-2.314,0-3.509H3.415a1.928,1.928,0,0,0-2.149,2.15V34.58a1.933,1.933,0,0,0,2.175,2.165H21.973A8.9,8.9,0,0,1,29.118,20.6C29.117,16.71,29.117,12.822,29.117,8.874ZM26.622,36.741A7.6,7.6,0,1,0,19,29.085,7.608,7.608,0,0,0,26.622,36.741ZM28.06,7.6c-1.747-1.748-3.511-3.512-5.25-5.25,0,1.146-.037,2.358.013,3.567A1.787,1.787,0,0,0,24.5,7.587C25.7,7.636,26.917,7.6,28.06,7.6Z" transform="translate(0 0)" fill="#194e78"/>
        <path id="Path_82" data-name="Path 82" d="M104.086,109.1H96.841a2.226,2.226,0,0,1-.395-.011.628.628,0,0,1,0-1.246,1.988,1.988,0,0,1,.355-.01h14.646a1.988,1.988,0,0,1,.355.01.628.628,0,0,1,0,1.246,2.229,2.229,0,0,1-.395.011Q107.746,109.1,104.086,109.1Z" transform="translate(-85.759 -96.425)" fill="#194e78"/>
        <path id="Path_83" data-name="Path 83" d="M42.938,145.038H36.922a1.99,1.99,0,0,1-.355-.01.628.628,0,0,1,0-1.246,1.989,1.989,0,0,1,.355-.01H49.035a1.989,1.989,0,0,1,.355.01.629.629,0,0,1,0,1.247,1.894,1.894,0,0,1-.355.01Z" transform="translate(-32.212 -128.563)" fill="#194e78"/>
        <path id="Path_84" data-name="Path 84" d="M42.336,215.605h5.423a1.987,1.987,0,0,1,.355.01.628.628,0,0,1,0,1.246,1.987,1.987,0,0,1-.355.01H36.912a1.894,1.894,0,0,1-.355-.011.629.629,0,0,1,0-1.247,1.99,1.99,0,0,1,.355-.01Q39.625,215.606,42.336,215.605Z" transform="translate(-32.203 -192.796)" fill="#194e78"/>
        <path id="Path_85" data-name="Path 85" d="M40.391,73.183c-1.214,0-2.427,0-3.642,0-.5,0-.789-.237-.789-.633s.289-.633.788-.633q3.641,0,7.283,0c.5,0,.789.237.79.631s-.291.633-.788.634C42.819,73.185,41.605,73.183,40.391,73.183Z" transform="translate(-32.159 -64.309)" fill="#194e78"/>
        <path id="Path_86" data-name="Path 86" d="M40.391,180.973c-1.214,0-2.427,0-3.642,0-.5,0-.789-.237-.789-.633s.289-.633.788-.633q3.641,0,7.283,0c.5,0,.789.237.79.631s-.291.633-.788.634C42.819,180.975,41.605,180.973,40.391,180.973Z" transform="translate(-32.159 -160.697)" fill="#194e78"/>
        <path id="Path_87" data-name="Path 87" d="M183.535,143.784c.99,0,1.979,0,2.969,0,.5,0,.789.238.789.633s-.291.631-.789.633q-3.008,0-6.016,0c-.5,0-.788-.238-.788-.634s.289-.63.789-.631C181.5,143.782,182.519,143.784,183.535,143.784Z" transform="translate(-160.695 -128.575)" fill="#194e78"/>
        <path id="Path_88" data-name="Path 88" d="M134.932,180.966c-.791,0-1.583,0-2.375,0-.494,0-.785-.246-.778-.643s.287-.621.759-.622q2.394,0,4.789,0c.494,0,.786.246.778.642s-.3.621-.8.623C136.516,180.968,135.723,180.966,134.932,180.966Z" transform="translate(-117.843 -160.691)" fill="#194e78"/>
        <path id="Path_89" data-name="Path 89" d="M39.117,288.765c-.791,0-1.583,0-2.375,0-.493,0-.784-.25-.774-.646s.289-.617.763-.618q2.394,0,4.789,0c.492,0,.784.251.775.646s-.293.617-.764.619C40.727,288.768,39.922,288.765,39.117,288.765Z" transform="translate(-32.166 -257.089)" fill="#194e78"/>
        <path id="Path_90" data-name="Path 90" d="M38.451,109.108c-.581,0-1.161,0-1.741,0-.466,0-.749-.248-.75-.631s.28-.63.749-.633q1.782-.006,3.562,0c.465,0,.75.248.75.631s-.285.629-.749.633C39.665,109.112,39.058,109.108,38.451,109.108Z" transform="translate(-32.159 -96.434)" fill="#194e78"/>
        <path id="Path_91" data-name="Path 91" d="M38.491,251.568c.593,0,1.188,0,1.781,0,.465,0,.749.249.749.633s-.286.63-.75.633q-1.782.006-3.562,0c-.466,0-.749-.249-.749-.633s.281-.627.749-.631C37.3,251.564,37.9,251.568,38.491,251.568Z" transform="translate(-32.159 -224.958)" fill="#194e78"/>
        <path id="Path_92" data-name="Path 92" d="M98.38,251.566c.593,0,1.188,0,1.781,0,.465,0,.749.249.75.631s-.285.63-.75.633q-1.782.006-3.562,0c-.466,0-.749-.247-.749-.633s.28-.628.749-.631C97.192,251.562,97.786,251.566,98.38,251.566Z" transform="translate(-85.714 -224.957)" fill="#194e78"/>
        <path id="Path_93" data-name="Path 93" d="M109.728,288.74c-.409,0-.818.007-1.227,0a.633.633,0,1,1,.015-1.262q1.207-.013,2.414,0a.631.631,0,0,1,.683.617.639.639,0,0,1-.7.644C110.52,288.748,110.125,288.74,109.728,288.74Z" transform="translate(-96.417 -257.064)" fill="#194e78"/>
        <path id="Path_94" data-name="Path 94" d="M212.656,247.151c.988-1.483,1.937-2.907,2.887-4.33.577-.865,1.14-1.742,1.746-2.586a.816.816,0,0,1,.621-.3.755.755,0,0,1,.5.421.728.728,0,0,1-.1.582q-2.481,3.76-4.992,7.5a.619.619,0,0,1-1.04.1c-.819-.8-1.627-1.616-2.433-2.432a.635.635,0,1,1,.885-.9C211.363,245.836,211.988,246.477,212.656,247.151Z" transform="translate(-187.427 -214.559)" fill="#194e78"/>
      </g>
      <text id="Attach_Receipt" data-name="Attach Receipt" transform="translate(162 403)" fill="#194e78" font-size="16" font-family="Roboto-Medium, Roboto" font-weight="500"><tspan x="0" y="0">Attach Receipt</tspan></text>
    </g>
  </g>
</svg>
