<svg xmlns="http://www.w3.org/2000/svg" width="22.852" height="21.763" viewBox="0 0 22.852 21.763">
  <g id="reciept" transform="translate(0.005 -0.006)">
    <path id="Path_98" data-name="Path 98" d="M22.847,5.756c-.065.311-.112.627-.2.933a5.263,5.263,0,0,1-5.1,3.842h-.238v.261q0,4.005,0,8.01a2.89,2.89,0,0,1-2.372,2.906,4.986,4.986,0,0,1-.932.058q-5.511.006-11.023,0A2.923,2.923,0,0,1,0,18.79q0-.736,0-1.473c0-.333.12-.454.459-.455.751,0,1.5,0,2.253,0h.27c.005-.089.013-.166.014-.244q.044-6.27.086-12.539c0-.5.1-.594.605-.594q4.363,0,8.725,0a.289.289,0,0,0,.322-.215A5.251,5.251,0,0,1,22.805,4.628a.865.865,0,0,0,.041.146Q22.847,5.265,22.847,5.756ZM3.735,16.861h8.013c.359,0,.467.108.468.464,0,.521-.008,1.041,0,1.561A2.169,2.169,0,0,0,14.4,21.021a2.143,2.143,0,0,0,2.15-2.137c.012-2.759,0-5.518.008-8.277,0-.139-.045-.186-.179-.219a5.151,5.151,0,0,1-3.1-2.136.288.288,0,0,0-.274-.138c-.81,0-1.621,0-2.432,0-.417,0-.833.006-1.249,0a.372.372,0,0,1-.391-.486.409.409,0,0,1,.445-.261c.848,0,1.7,0,2.543,0h.854a5.385,5.385,0,0,1-.35-3.122H3.82C3.792,8.452,3.764,12.637,3.735,16.861ZM17.58,9.786a4.514,4.514,0,1,0-4.505-4.539A4.509,4.509,0,0,0,17.58,9.786ZM.743,17.608c0,.442-.013.872,0,1.3A2.151,2.151,0,0,0,2.924,21.02q4.661.007,9.323,0a.511.511,0,0,0,.1-.01,7.3,7.3,0,0,1-.641-1.077,4.323,4.323,0,0,1-.225-1.17c-.036-.38-.008-.766-.008-1.156Z" transform="translate(0 0)" fill="#fff"/>
    <path id="Path_99" data-name="Path 99" d="M194.961,298.787c-.8,0-1.592,0-2.387,0-.252,0-.406-.126-.425-.333-.022-.238.141-.4.419-.407.454-.006.908,0,1.361,0h3.324c.067,0,.134,0,.2,0a.371.371,0,0,1,.363.377.366.366,0,0,1-.379.36c-.431.007-.863,0-1.294,0Z" transform="translate(-183.227 -284.196)" fill="#fff"/>
    <path id="Path_100" data-name="Path 100" d="M194.892,228.424c.81,0,1.621,0,2.432,0a.363.363,0,0,1,.4.356.368.368,0,0,1-.385.374c-.067,0-.134,0-.2,0h-3.213c-.483,0-.967,0-1.45,0a.375.375,0,0,1-.41-.273.364.364,0,0,1,.394-.46C193.271,228.421,194.082,228.424,194.892,228.424Z" transform="translate(-183.136 -217.808)" fill="#fff"/>
    <path id="Path_101" data-name="Path 101" d="M125.656,143.456a1.169,1.169,0,0,1-1.172,1.153,1.15,1.15,0,1,1-.006-2.3A1.168,1.168,0,0,1,125.656,143.456Zm-1.189.406a.405.405,0,1,0,.017-.806.4.4,0,1,0-.017.806Z" transform="translate(-117.568 -135.695)" fill="#fff"/>
    <path id="Path_102" data-name="Path 102" d="M125.666,212.785a1.168,1.168,0,0,1-1.173,1.152,1.149,1.149,0,1,1,0-2.3A1.163,1.163,0,0,1,125.666,212.785Zm-1.172.4a.423.423,0,0,0,.437-.409.436.436,0,0,0-.452-.4.4.4,0,1,0,.016.806Z" transform="translate(-117.577 -201.805)" fill="#fff"/>
    <path id="Path_103" data-name="Path 103" d="M125.666,282.15A1.165,1.165,0,0,1,124.5,283.3a1.147,1.147,0,1,1-.008-2.292A1.155,1.155,0,0,1,125.666,282.15Zm-1.181.4a.424.424,0,0,0,.445-.4.438.438,0,0,0-.444-.407.427.427,0,0,0-.442.405A.417.417,0,0,0,124.485,282.554Z" transform="translate(-117.578 -267.953)" fill="#fff"/>
    <path id="Path_104" data-name="Path 104" d="M346.685,45.337c0,.147.009.281,0,.413a.346.346,0,0,1-.357.326c-.193,0-.379-.131-.355-.319.044-.351-.127-.484-.412-.634a1.416,1.416,0,0,1-.759-1.257c-.013-.265.115-.424.337-.437s.362.12.393.385a.828.828,0,0,0,1.616.225.818.818,0,0,0-.643-1.058c-.19-.031-.387-.034-.572-.084a1.543,1.543,0,0,1-1.123-1.305,1.522,1.522,0,0,1,.844-1.584c.235-.108.343-.217.316-.484a.335.335,0,0,1,.324-.378.343.343,0,0,1,.393.376c-.018.256.075.356.314.455a1.49,1.49,0,0,1,.927,1.314.387.387,0,0,1-.332.47c-.222.023-.38-.131-.411-.4a.815.815,0,0,0-.9-.786.831.831,0,0,0-.754.824.841.841,0,0,0,.828.825,1.566,1.566,0,0,1,.438,3.071Z" transform="translate(-328.787 -37.323)" fill="#fff"/>
  </g>
</svg>
