<svg id="setting" xmlns="http://www.w3.org/2000/svg" width="30" height="30" viewBox="0 0 30 30">
  <path id="Path_119" data-name="Path 119" d="M1.02,13.384V16.6l2.037.515c.282.071.565.141.848.207a.6.6,0,0,1,.482.473A9.926,9.926,0,0,0,5.5,20.5a.634.634,0,0,1-.008.728c-.469.761-.918,1.536-1.389,2.3a.281.281,0,0,0,.048.421c.641.625,1.277,1.257,1.9,1.9.16.166.268.15.447.04.743-.459,1.5-.893,2.244-1.356a.665.665,0,0,1,.782-.019,8.819,8.819,0,0,0,2.64,1.094.657.657,0,0,1,.527.543c.225.94.464,1.878.7,2.831h3.226c.233-.928.477-1.853.693-2.783a.717.717,0,0,1,.585-.6,8.858,8.858,0,0,0,2.581-1.077.664.664,0,0,1,.782,0c.759.473,1.53.93,2.3,1.38a.347.347,0,0,0,.312.009c.726-.7,1.437-1.418,2.169-2.147l-.868-1.457c-.225-.375-.444-.753-.676-1.123a.547.547,0,0,1-.022-.616,10.654,10.654,0,0,0,1.163-2.816.607.607,0,0,1,.516-.437c.848-.207,1.7-.42,2.543-.632.1-.024.2-.054.3-.082V13.386c-.933-.234-1.857-.477-2.786-.693a.713.713,0,0,1-.6-.584,8.629,8.629,0,0,0-1.076-2.581.663.663,0,0,1,0-.782c.468-.751.909-1.517,1.373-2.271.1-.166.12-.271-.035-.422q-.974-.947-1.923-1.921a.265.265,0,0,0-.4-.047c-.753.464-1.52.9-2.27,1.373a.686.686,0,0,1-.81.013,8.827,8.827,0,0,0-2.553-1.062.74.74,0,0,1-.607-.617c-.214-.93-.459-1.853-.7-2.794H13.263c-.535,0-.743-.135-.752-.487C12.5.145,12.719,0,13.263,0h3.594c.441,0,.564.094.674.529.225.887.453,1.773.664,2.663a.471.471,0,0,0,.348.371q1.047.4,2.071.857a.446.446,0,0,0,.481-.012c.788-.486,1.586-.958,2.38-1.433.389-.233.5-.221.817.093q1.328,1.324,2.651,2.652a.535.535,0,0,1,.1.8c-.474.8-.947,1.592-1.432,2.381a.445.445,0,0,0-.028.481c.31.691.6,1.393.873,2.1a.453.453,0,0,0,.352.33c.91.218,1.817.449,2.724.68a.525.525,0,0,1,.478.619q0,1.89,0,3.781c0,.377-.113.52-.484.615-.907.23-1.814.461-2.724.679a.452.452,0,0,0-.352.33c-.272.707-.564,1.407-.868,2.1a.424.424,0,0,0,.014.453c.485.789.957,1.586,1.431,2.381.227.381.207.536-.108.852q-1.3,1.305-2.608,2.608c-.312.312-.47.33-.852.1-.787-.469-1.575-.936-2.355-1.415a.444.444,0,0,0-.481-.026c-.691.311-1.392.6-2.1.874a.452.452,0,0,0-.329.352c-.215.9-.444,1.8-.672,2.694-.1.407-.236.508-.659.508q-1.86,0-3.719,0c-.417,0-.546-.1-.651-.518-.228-.9-.456-1.794-.672-2.694a.45.45,0,0,0-.331-.352c-.707-.271-1.408-.562-2.1-.867a.425.425,0,0,0-.453.015c-.789.484-1.586.958-2.382,1.431-.384.229-.534.207-.851-.11Q4.4,25.6,3.1,24.293c-.314-.315-.331-.465-.1-.852.469-.787.936-1.575,1.415-2.355a.445.445,0,0,0,.025-.481c-.31-.691-.6-1.393-.873-2.1a.453.453,0,0,0-.353-.328c-.9-.216-1.8-.445-2.694-.672-.4-.1-.506-.235-.507-.628q0-1.89,0-3.781c0-.378.111-.518.486-.613.907-.23,1.814-.461,2.724-.679a.449.449,0,0,0,.35-.331c.272-.707.564-1.407.868-2.1a.424.424,0,0,0-.014-.453C3.942,8.132,3.47,7.336,3,6.54c-.229-.383-.209-.534.108-.851q1.314-1.316,2.63-2.628c.3-.3.437-.316.8-.1.814.484,1.621.979,2.441,1.453a.509.509,0,0,0,.387.013q1.1-.435,2.185-.908a.546.546,0,0,0,.263-.287c.093-.264.137-.544.21-.815a.5.5,0,1,1,.972.234c-.1.415-.208.827-.306,1.242a.581.581,0,0,1-.448.469A9.76,9.76,0,0,0,9.452,5.516a.587.587,0,0,1-.671-.038c-.763-.468-1.537-.918-2.3-1.388a.281.281,0,0,0-.421.049q-.938.962-1.9,1.9a.281.281,0,0,0-.056.42c.465.752.905,1.52,1.373,2.27a.665.665,0,0,1,.017.782A8.7,8.7,0,0,0,4.4,12.151a.657.657,0,0,1-.544.526C2.917,12.906,1.979,13.144,1.02,13.384Z" transform="translate(-0.011 0.004)" fill="#fff"/>
  <path id="Path_120" data-name="Path 120" d="M85.248,92.685a7.425,7.425,0,1,1,7.365-8.457A7.264,7.264,0,0,1,91.1,89.841a.47.47,0,0,1-.518.215c-.315-.079-.385-.416-.2-.73a11.684,11.684,0,0,0,.992-1.777,6.513,6.513,0,1,0-2.444,3.13c.1-.065.218-.169.308-.152a.748.748,0,0,1,.448.224.367.367,0,0,1-.128.546,14.078,14.078,0,0,1-1.476.816A6.919,6.919,0,0,1,85.248,92.685Z" transform="translate(-70.237 -70.26)" fill="#fff"/>
</svg>
