<svg xmlns="http://www.w3.org/2000/svg" xmlns:xlink="http://www.w3.org/1999/xlink" width="86" height="102" viewBox="0 0 86 102">
  <defs>
    <filter id="Rectangle_3" x="0" y="0" width="86" height="102" filterUnits="userSpaceOnUse">
      <feOffset input="SourceAlpha"/>
      <feGaussianBlur stdDeviation="5" result="blur"/>
      <feFlood flood-opacity="0.502"/>
      <feComposite operator="in" in2="blur"/>
      <feComposite in="SourceGraphic"/>
    </filter>
  </defs>
  <g id="top-right-logo" transform="translate(-313 2)">
    <g transform="matrix(1, 0, 0, 1, 313, -2)" filter="url(#Rectangle_3)">
      <rect id="Rectangle_3-2" data-name="Rectangle 3" width="56" height="72" rx="6" transform="translate(15 15)" fill="#194e78"/>
    </g>
    <g id="logo" transform="translate(332.595 21.358)">
      <path id="Path_1" data-name="Path 1" d="M77.973.049v34.39H74.827V3.279H60.608v9.674l-.106.029L59.1,10.2l-1.619,3.057-.087-.024V3.267c-.163-.009-.284-.02-.405-.02q-5.424,0-10.847,0a4.718,4.718,0,0,0-4.676,4.029,6.21,6.21,0,0,0-.029.922q0,13.7,0,27.409v.5c-.526-.285-.988-.574-1.481-.79a9.684,9.684,0,0,0-1.422-.468c-.237-.063-.326-.164-.3-.4a3.244,3.244,0,0,0,0-.342c0-8.566.012-17.132-.01-25.7A8.555,8.555,0,0,1,39.347,3.9a7.855,7.855,0,0,1,2.728-2.73,7.774,7.774,0,0,1,4.1-1.129Q61.882.022,77.588.033C77.71.03,77.832.041,77.973.049Z" transform="translate(-34.932 -0.031)" fill="#fff"/>
      <path id="Path_2" data-name="Path 2" d="M0,426.275v-2.86H5.057c.032-.062.062-.091.06-.12a5.3,5.3,0,0,0-.792-2.856,2.518,2.518,0,0,0-1.319-.865,8.062,8.062,0,0,0-2.631-.31c-.114,0-.226,0-.367,0v-2.833a.777.777,0,0,1,.151-.032,9.858,9.858,0,0,1,4.687.9,5.287,5.287,0,0,1,1.665,1.44,7.64,7.64,0,0,1,1.356,4.288c.034.3.1.41.421.405,1.061-.018,2.121-.007,3.182-.008.089,0,.179-.009.354-.02-.284-.465-.514-.9-.8-1.3a4.161,4.161,0,0,1-.758-3.044,2.783,2.783,0,0,1,1.017-1.771,3.9,3.9,0,0,1,2.776-.95,27.209,27.209,0,0,1,2.833.083,3.477,3.477,0,0,1,3.022,3.4,3.888,3.888,0,0,1-.766,2.229c-.275.416-.519.852-.81,1.335.158.015.263.032.367.032,1.209,0,2.418-.008,3.627.007.314,0,.409-.093.405-.408-.017-1.163,0-2.327-.009-3.49-.009-.91-.036-1.819-.069-2.73-.009-.268.081-.356.352-.349.684.017,1.369.02,2.053,0,.294-.009.38.1.357.373-.02.237,0,.477,0,.764l.632-.493a3.429,3.429,0,0,1,2.156-.75c1.471,0,2.942.023,4.413.05a1.381,1.381,0,0,1,1.275,1.1,2.159,2.159,0,0,1,.046.407c.026,1.7.06,3.393.061,5.09,0,.361.115.443.448.432.649-.022,1.3,0,1.95-.016.092,0,.264-.135.258-.194a4.479,4.479,0,0,1,.908-2.845c.807-1.28,1.612-2.56,2.435-3.829a.578.578,0,0,1,.408-.224c.706-.022,1.414-.019,2.121,0a.507.507,0,0,1,.361.176c.878,1.29,1.777,2.566,2.592,3.9a7,7,0,0,1,.792,1.945,3.293,3.293,0,0,1-2.085,3.627,5.314,5.314,0,0,1-1.84.3q-20.8,0-41.605,0C.5,426.275.267,426.275,0,426.275Zm31.215-7.02c-1.227,0-2.4-.066-3.568.019a2.367,2.367,0,0,0-2.147,2.176c-.045.578-.009,1.161-.019,1.742,0,.217.125.234.288.234,1.721,0,3.441,0,5.162,0,.231,0,.291-.1.286-.311-.009-.489,0-.98,0-1.47ZM15.069,423.33l.822-1.341c.386-.63.791-1.25,1.153-1.893a.523.523,0,0,0-.46-.844c-.989-.028-1.979-.034-2.969-.008-.545.014-.754.42-.5.906.146.281.328.545.495.816Zm26.454-3.969c-.662,1.055-1.319,2.05-1.92,3.078-.317.542-.049.95.576.958q1.332.017,2.663,0c.711-.01.948-.4.587-1C42.823,421.393,42.186,420.412,41.523,419.36Z" transform="translate(0 -380.495)" fill="#fff"/>
      <path id="Path_3" data-name="Path 3" d="M41.525,554.238h.4c3.627,0,7.255.012,10.882-.006a4.521,4.521,0,0,0,4.023-2.3,4.3,4.3,0,0,0,.643-2.481c-.015-.327.108-.4.411-.4.821.017,1.642.015,2.464,0,.271,0,.352.089.346.355a7.913,7.913,0,0,1-1.353,4.511c-.056.079-.1.169-.169.3.165.007.286.017.406.017,3.525,0,7.049.011,10.574,0a4.549,4.549,0,0,0,4.374-2.836A7.531,7.531,0,0,0,74.9,549.6a3.1,3.1,0,0,0,0-.518h3.231c-.067.686-.09,1.368-.208,2.033a7.865,7.865,0,0,1-7.631,6.325q-15.809.026-31.617.015c-.294,0-.362-.1-.361-.377q.012-3.833,0-7.665c0-.282.084-.376.369-.37.833.017,1.665.016,2.5,0,.269,0,.348.089.347.355-.011,1.46-.005,2.92-.005,4.38C41.525,553.922,41.525,554.056,41.525,554.238Z" transform="translate(-35.023 -501.817)" fill="#fff"/>
      <path id="Path_4" data-name="Path 4" d="M264.473,293.186H261.32V283.048l.065-.028,1.62,3.056,1.4-2.782.064.019Q264.473,288.247,264.473,293.186Z" transform="translate(-238.84 -258.675)" fill="#fff"/>
      <path id="Path_5" data-name="Path 5" d="M254.728,235.713l-2.4-5.393h4.762q-1.134,2.688-2.273,5.387Z" transform="translate(-230.623 -210.509)" fill="#fff"/>
      <path id="Path_6" data-name="Path 6" d="M257.036,157.234H252.26c.822-1.849,1.611-3.624,2.4-5.4l.089,0C255.51,153.624,256.268,155.417,257.036,157.234Z" transform="translate(-230.559 -138.771)" fill="#fff"/>
    </g>
  </g>
</svg>
