<svg xmlns="http://www.w3.org/2000/svg" xmlns:xlink="http://www.w3.org/1999/xlink" width="96" height="116" viewBox="0 0 96 116">
  <defs>
    <filter id="Rectangle_3" x="0" y="0" width="96" height="116" filterUnits="userSpaceOnUse">
      <feOffset input="SourceAlpha"/>
      <feGaussianBlur stdDeviation="5" result="blur"/>
      <feFlood flood-opacity="0.502"/>
      <feComposite operator="in" in2="blur"/>
      <feComposite in="SourceGraphic"/>
    </filter>
  </defs>
  <g id="top-left-logo" transform="translate(-313 2)">
    <g transform="matrix(1, 0, 0, 1, 313, -2)" filter="url(#Rectangle_3)">
      <rect id="Rectangle_3-2" data-name="Rectangle 3" width="66" height="86" rx="6" transform="translate(15 15)" fill="#fff"/>
    </g>
    <g id="logo" transform="translate(333.461 22.903)">
      <path id="Path_1" data-name="Path 1" d="M85.468.053V40.926H81.729V3.892h-16.9v11.5l-.126.035-1.669-3.313L61.11,15.745l-.1-.029V3.878c-.193-.01-.337-.024-.482-.024q-6.446,0-12.892,0a5.607,5.607,0,0,0-5.558,4.789,7.38,7.38,0,0,0-.035,1.1q0,16.288,0,32.576v.589c-.625-.338-1.174-.682-1.761-.939a11.511,11.511,0,0,0-1.69-.556c-.281-.075-.388-.2-.359-.471a3.857,3.857,0,0,0,0-.407c0-10.181.014-20.362-.012-30.543a10.168,10.168,0,0,1,1.34-5.365A9.336,9.336,0,0,1,42.8,1.381,9.24,9.24,0,0,1,47.675.039Q66.343.021,85.01.033C85.155.03,85.3.043,85.468.053Z" transform="translate(-34.312)" fill="#194e78"/>
      <path id="Path_2" data-name="Path 2" d="M0,428.155v-3.4H6.01c.038-.074.074-.108.072-.142a6.3,6.3,0,0,0-.942-3.395,2.992,2.992,0,0,0-1.567-1.029,9.582,9.582,0,0,0-3.127-.368c-.135,0-.269,0-.437,0v-3.367a.924.924,0,0,1,.18-.038,11.716,11.716,0,0,1,5.57,1.069A6.285,6.285,0,0,1,7.738,419.2c1.23,1.489,1.408,3.3,1.611,5.1.04.354.124.488.5.482,1.261-.021,2.521-.008,3.782-.009.106,0,.213-.011.42-.023-.337-.552-.611-1.074-.953-1.545a4.945,4.945,0,0,1-.9-3.617,3.307,3.307,0,0,1,1.209-2.105,4.635,4.635,0,0,1,3.3-1.129,32.336,32.336,0,0,1,3.367.1,4.132,4.132,0,0,1,3.592,4.046,4.621,4.621,0,0,1-.91,2.649c-.327.494-.617,1.012-.963,1.587.188.017.313.038.437.038,1.437,0,2.874-.009,4.311.008.373.005.487-.11.482-.485-.02-1.382,0-2.766-.011-4.148-.01-1.082-.043-2.163-.082-3.244-.011-.318.1-.423.418-.415.813.021,1.627.024,2.44,0,.35-.01.452.116.424.444-.024.281-.005.566-.005.908.277-.216.514-.4.752-.586a4.075,4.075,0,0,1,2.562-.892c1.748,0,3.5.028,5.245.059a1.641,1.641,0,0,1,1.515,1.311,2.566,2.566,0,0,1,.054.484c.031,2.016.072,4.033.073,6.05,0,.429.137.527.533.513.772-.027,1.545,0,2.318-.019.109,0,.314-.161.307-.231a5.323,5.323,0,0,1,1.08-3.381c.959-1.521,1.916-3.043,2.894-4.551a.687.687,0,0,1,.485-.266c.839-.027,1.681-.022,2.52,0a.6.6,0,0,1,.429.21c1.044,1.533,2.112,3.05,3.081,4.63a8.32,8.32,0,0,1,.942,2.312,3.914,3.914,0,0,1-2.478,4.311,6.315,6.315,0,0,1-2.187.362q-24.724,0-49.449.005C.6,428.155.317,428.155,0,428.155Zm37.1-8.343c-1.458,0-2.856-.079-4.24.022a2.813,2.813,0,0,0-2.552,2.587c-.053.687-.011,1.38-.022,2.07,0,.258.148.278.343.278,2.045,0,4.09,0,6.135,0,.275,0,.346-.119.34-.369-.011-.582,0-1.165,0-1.747ZM17.91,424.654l.977-1.594c.459-.748.94-1.486,1.37-2.25a.622.622,0,0,0-.547-1c-1.176-.034-2.353-.04-3.528-.009-.648.016-.9.5-.6,1.077.174.334.39.647.588.969Zm31.441-4.718c-.787,1.254-1.567,2.436-2.282,3.658-.376.644-.058,1.129.685,1.139q1.583.02,3.166,0c.845-.012,1.127-.481.7-1.19C50.9,422.352,50.139,421.186,49.352,419.936Z" transform="translate(0 -373.713)" fill="#194e78"/>
      <path id="Path_3" data-name="Path 3" d="M42.13,555.217H42.6c4.311,0,8.622.014,12.933-.007a5.373,5.373,0,0,0,4.781-2.732,5.108,5.108,0,0,0,.764-2.949c-.018-.389.129-.481.489-.472.975.02,1.952.017,2.928,0,.322-.005.418.106.411.422a9.4,9.4,0,0,1-1.608,5.362c-.066.094-.116.2-.2.354.2.008.339.021.483.021,4.189,0,8.378.013,12.567,0a5.407,5.407,0,0,0,5.2-3.371,8.951,8.951,0,0,0,.451-2.131,3.68,3.68,0,0,0,.005-.616h3.84c-.08.815-.107,1.626-.247,2.416a9.348,9.348,0,0,1-9.069,7.517q-18.789.031-37.578.017c-.35,0-.43-.125-.429-.448q.014-4.555,0-9.11c0-.335.1-.447.439-.44.99.02,1.979.019,2.968.005.32,0,.414.105.412.422-.013,1.735-.006,3.47-.006,5.205C42.13,554.841,42.13,555,42.13,555.217Z" transform="translate(-34.402 -492.882)" fill="#194e78"/>
      <path id="Path_4" data-name="Path 4" d="M265.067,295.1H261.32V283.054l.077-.034,1.925,3.632,1.669-3.307.076.022Q265.068,289.232,265.067,295.1Z" transform="translate(-234.601 -254.055)" fill="#194e78"/>
      <path id="Path_5" data-name="Path 5" d="M255.18,236.73c-.937-2.107-1.874-4.215-2.85-6.41h5.66q-1.348,3.195-2.7,6.4Z" transform="translate(-226.53 -206.743)" fill="#194e78"/>
      <path id="Path_6" data-name="Path 6" d="M257.937,158.253H252.26c.976-2.2,1.915-4.308,2.854-6.418l.106-.005C256.123,153.962,257.024,156.094,257.937,158.253Z" transform="translate(-226.468 -136.278)" fill="#194e78"/>
    </g>
  </g>
</svg>
