<svg id="user" xmlns="http://www.w3.org/2000/svg" width="30" height="30.003" viewBox="0 0 30 30.003">
  <path id="Path_27" data-name="Path 27" d="M0,14.068c.076-.559.139-1.12.23-1.677A14.957,14.957,0,0,1,11.1.524a14.793,14.793,0,0,1,13,2.558.593.593,0,0,1,.186.9.625.625,0,0,1-.867.052,26.877,26.877,0,0,0-2.6-1.565,12.857,12.857,0,0,0-8.988-.907C6.068,3.091,2.474,6.831,1.4,12.691A13.22,13.22,0,0,0,5.624,25.169c.054.052.117.095.2.164A9.347,9.347,0,0,1,9.94,19.422a9.126,9.126,0,0,1,5.477-1.478,9.41,9.41,0,0,1,8.764,7.38c.075-.059.144-.106.2-.164a13.546,13.546,0,0,0,4.392-9.077A13.642,13.642,0,0,0,26.924,8c-.029-.051-.06-.1-.087-.153a.584.584,0,0,1,.2-.816.566.566,0,0,1,.805.225c.264.456.524.915.746,1.392a15.007,15.007,0,0,1-9.293,20.735,14.143,14.143,0,0,1-3.1.573,2.057,2.057,0,0,0-.254.05H14.063a1.754,1.754,0,0,0-.225-.049,14.468,14.468,0,0,1-7.036-2.4A14.774,14.774,0,0,1,.229,17.591c-.1-.545-.153-1.1-.229-1.648ZM14.948,28.836a13.778,13.778,0,0,0,7.6-2.243c.614-.4.614-.4.441-1.135a8.163,8.163,0,0,0-10.909-5.809A7.961,7.961,0,0,0,6.918,25.86a.442.442,0,0,0,.218.526A13.755,13.755,0,0,0,14.948,28.836Z" transform="translate(0 -0.001)" fill="#fff"/>
  <path id="Path_28" data-name="Path 28" d="M129.953,90.831a5.706,5.706,0,1,1,5.718-5.693A5.717,5.717,0,0,1,129.953,90.831Zm4.45-5.709a4.438,4.438,0,1,0-4.427,4.441A4.446,4.446,0,0,0,134.4,85.122Z" transform="translate(-114.966 -74.069)" fill="#fff"/>
  <path id="Path_29" data-name="Path 29" d="M322.7,61.48a.808.808,0,1,1-.806.79A.817.817,0,0,1,322.7,61.48Z" transform="translate(-296.546 -56.937)" fill="#fff"/>
</svg>
